<svg xmlns="http://www.w3.org/2000/svg" viewBox="0 0 1614.14 2305.15" width="1614.14" height="2305.15"><g><svg><defs><filter id="table_glow"><feGaussianBlur stdDeviation="3.5" result="coloredBlur"></feGaussianBlur><feMerge><feMergeNode in="coloredBlur"></feMergeNode><feMergeNode in="SourceGraphic"></feMergeNode></feMerge></filter></defs><path d="
  M 1134.14 1941.15 
  H 1114.14 
  V 2181.15
  H 1124.14
  " fill="none" stroke="#ecad5a" stroke-width="2"></path><g><line x1="1124.14" y1="2181.15" x2="1134.14" y2="2181.15" stroke="#ecad5a" stroke-width="2"></line><line x1="1124.14" y1="2181.15" x2="1134.14" y2="2176.15" stroke="#ecad5a" stroke-width="2"></line><line x1="1124.14" y1="2181.15" x2="1134.14" y2="2186.15" stroke="#ecad5a" stroke-width="2"></line></g></svg><svg><defs><filter id="table_glow"><feGaussianBlur stdDeviation="3.5" result="coloredBlur"></feGaussianBlur><feMerge><feMergeNode in="coloredBlur"></feMergeNode><feMergeNode in="SourceGraphic"></feMergeNode></feMerge></filter></defs><line x1="1134.14" y1="2061.15" x2="986.7500000000002" y2="1656.0749999999998" stroke="#ecad5a" stroke-width="2"></line><g><line x1="986.7500000000002" y1="1656.0749999999998" x2="976.7500000000002" y2="1656.0749999999998" stroke="#ecad5a" stroke-width="2"></line><line x1="986.7500000000002" y1="1656.0749999999998" x2="976.7500000000002" y2="1651.0749999999998" stroke="#ecad5a" stroke-width="2"></line><line x1="986.7500000000002" y1="1656.0749999999998" x2="976.7500000000002" y2="1661.0749999999998" stroke="#ecad5a" stroke-width="2"></line></g></svg></g><g transform="translate(1109.15, 1659.625)"><rect x="0" y="0" width="380" height="146" style="fill:#fefdfe"></rect><rect x="0" y="0" width="380" height="25" style="fill:#e6eaf2"></rect><text x="10" y="14" style="font-family:&#x27;Arial&#x27;, sans-serif;font-size:14px;fill:#202020">Authors</text><g transform="translate(0, 15)"><g transform="translate(10, 25)"><g transform="translate(0, 0)"><clipPath id="clip_8fa2adf9-307c-4956-9242-92ebd798ab75"><rect x="21" y="0" width="191" height="17"></rect></clipPath><text x="21" y="14" style="fill:#202020;font-family:Arial;font-size:14px" clip-path="url(#clip_8fa2adf9-307c-4956-9242-92ebd798ab75)">_id</text></g><text x="233" y="14" style="fill:#202020;font-family:Arial;font-size:14px" width="80">objectId</text><text x="334" y="14" width="22" height="14" style="fill:#202020;font-family:Arial;font-size:14px">NN</text></g><g transform="translate(10, 49)"><g transform="translate(0, 0)"><clipPath id="clip_6bb75eec-8b33-48c0-8f72-558d0d58743c"><rect x="21" y="0" width="191" height="17"></rect></clipPath><text x="21" y="14" style="fill:#202020;font-family:Arial;font-size:14px" clip-path="url(#clip_6bb75eec-8b33-48c0-8f72-558d0d58743c)">name</text></g><text x="233" y="14" style="fill:#202020;font-family:Arial;font-size:14px" width="80">string</text><text x="334" y="14" width="22" height="14" style="fill:#202020;font-family:Arial;font-size:14px"></text></g><g transform="translate(10, 73)"><g transform="translate(0, 0)"><clipPath id="clip_4f0b0451-93a0-449e-80d1-1bc2d80985ac"><rect x="21" y="0" width="191" height="17"></rect></clipPath><text x="21" y="14" style="fill:#202020;font-family:Arial;font-size:14px" clip-path="url(#clip_4f0b0451-93a0-449e-80d1-1bc2d80985ac)">bio</text></g><text x="233" y="14" style="fill:#202020;font-family:Arial;font-size:14px" width="80">string</text><text x="334" y="14" width="22" height="14" style="fill:#202020;font-family:Arial;font-size:14px"></text></g><g transform="translate(10, 97)"><g transform="translate(0, 0)"><clipPath id="clip_d51881f1-2b35-45e6-940f-132a0869034b"><rect x="21" y="0" width="191" height="17"></rect></clipPath><text x="21" y="14" style="fill:#202020;font-family:Arial;font-size:14px" clip-path="url(#clip_d51881f1-2b35-45e6-940f-132a0869034b)">socialMedia</text></g><text x="233" y="14" style="fill:#202020;font-family:Arial;font-size:14px" width="80">string[]</text><text x="334" y="14" width="22" height="14" style="fill:#202020;font-family:Arial;font-size:14px"></text></g></g><rect x="0" y="0" width="380" height="146" style="fill:none;stroke:#e6eaf2"></rect></g><g transform="translate(143.14999999999998, 1623.9250000000002)"><rect x="0" y="0" width="380" height="242" style="fill:#fefdfe"></rect><rect x="0" y="0" width="380" height="25" style="fill:#e6eaf2"></rect><text x="10" y="14" style="font-family:&#x27;Arial&#x27;, sans-serif;font-size:14px;fill:#202020">Users</text><g transform="translate(0, 15)"><g transform="translate(10, 25)"><g transform="translate(0, 0)"><clipPath id="clip_0e3789d7-2aa9-423a-872b-757775af6eaf"><rect x="21" y="0" width="191" height="17"></rect></clipPath><text x="21" y="14" style="fill:#202020;font-family:Arial;font-size:14px" clip-path="url(#clip_0e3789d7-2aa9-423a-872b-757775af6eaf)">_id</text></g><text x="233" y="14" style="fill:#202020;font-family:Arial;font-size:14px" width="80">objectId</text><text x="334" y="14" width="22" height="14" style="fill:#202020;font-family:Arial;font-size:14px">NN</text></g><g transform="translate(10, 49)"><g transform="translate(0, 0)"><clipPath id="clip_878fefd9-e90f-4460-8140-ac20b1218306"><rect x="21" y="0" width="191" height="17"></rect></clipPath><text x="21" y="14" style="fill:#202020;font-family:Arial;font-size:14px" clip-path="url(#clip_878fefd9-e90f-4460-8140-ac20b1218306)">name</text></g><text x="233" y="14" style="fill:#202020;font-family:Arial;font-size:14px" width="80">string</text><text x="334" y="14" width="22" height="14" style="fill:#202020;font-family:Arial;font-size:14px"></text></g><g transform="translate(10, 73)"><g transform="translate(0, 0)"><clipPath id="clip_5d410ad1-6960-4d0d-b324-e585d479b2f8"><rect x="21" y="0" width="191" height="17"></rect></clipPath><text x="21" y="14" style="fill:#202020;font-family:Arial;font-size:14px" clip-path="url(#clip_5d410ad1-6960-4d0d-b324-e585d479b2f8)">surname</text></g><text x="233" y="14" style="fill:#202020;font-family:Arial;font-size:14px" width="80">string</text><text x="334" y="14" width="22" height="14" style="fill:#202020;font-family:Arial;font-size:14px"></text></g><g transform="translate(10, 97)"><g transform="translate(0, 0)"><clipPath id="clip_76acd882-890b-4fb5-a1a8-ae95a5d2c53c"><rect x="21" y="0" width="191" height="17"></rect></clipPath><text x="21" y="14" style="fill:#202020;font-family:Arial;font-size:14px" clip-path="url(#clip_76acd882-890b-4fb5-a1a8-ae95a5d2c53c)">email</text></g><text x="233" y="14" style="fill:#202020;font-family:Arial;font-size:14px" width="80">string</text><text x="334" y="14" width="22" height="14" style="fill:#202020;font-family:Arial;font-size:14px"></text></g><g transform="translate(10, 121)"><g transform="translate(0, 0)"><clipPath id="clip_0d9541d3-8698-4af6-b439-6d8e62f99e7f"><rect x="21" y="0" width="191" height="17"></rect></clipPath><text x="21" y="14" style="fill:#202020;font-family:Arial;font-size:14px" clip-path="url(#clip_0d9541d3-8698-4af6-b439-6d8e62f99e7f)">hasSuscription</text></g><text x="233" y="14" style="fill:#202020;font-family:Arial;font-size:14px" width="80">bool</text><text x="334" y="14" width="22" height="14" style="fill:#202020;font-family:Arial;font-size:14px"></text></g><g transform="translate(10, 145)"><g transform="translate(0, 0)"><text x="0" y="14" style="fill:#202020;font-family:&#x27;Arial&#x27;, sans-serif;font-size:14px">▼</text><clipPath id="clip_4b84104b-02fd-44d4-bb99-b94640d62548"><rect x="21" y="0" width="191" height="17"></rect></clipPath><text x="21" y="14" style="fill:#202020;font-family:Arial;font-size:14px" clip-path="url(#clip_4b84104b-02fd-44d4-bb99-b94640d62548)">courses</text></g><text x="233" y="14" style="fill:#202020;font-family:Arial;font-size:14px" width="80">object[]</text><text x="334" y="14" width="22" height="14" style="fill:#202020;font-family:Arial;font-size:14px"></text></g><g transform="translate(10, 169)"><g transform="translate(20, 0)"><clipPath id="clip_1d9b8629-36f9-4fca-bb46-f9ed5e3942e4"><rect x="21" y="0" width="171" height="17"></rect></clipPath><text x="21" y="14" style="fill:#202020;font-family:Arial;font-size:14px" clip-path="url(#clip_1d9b8629-36f9-4fca-bb46-f9ed5e3942e4)">courseId</text></g><text x="233" y="14" style="fill:#202020;font-family:Arial;font-size:14px" width="80">objectId</text><text x="334" y="14" width="22" height="14" style="fill:#202020;font-family:Arial;font-size:14px"></text></g><g transform="translate(10, 193)"><g transform="translate(20, 0)"><clipPath id="clip_87449cf5-6b47-454c-aed1-a847f0fb39b2"><rect x="21" y="0" width="171" height="17"></rect></clipPath><text x="21" y="14" style="fill:#202020;font-family:Arial;font-size:14px" clip-path="url(#clip_87449cf5-6b47-454c-aed1-a847f0fb39b2)">name</text></g><text x="233" y="14" style="fill:#202020;font-family:Arial;font-size:14px" width="80">string</text><text x="334" y="14" width="22" height="14" style="fill:#202020;font-family:Arial;font-size:14px"></text></g></g><rect x="0" y="0" width="380" height="242" style="fill:none;stroke:#e6eaf2"></rect></g><g transform="translate(1134.14, 1891.15)"><rect x="0" y="0" width="380" height="314" style="fill:#fefdfe"></rect><rect x="0" y="0" width="380" height="25" style="fill:#e6eaf2"></rect><text x="10" y="14" style="font-family:&#x27;Arial&#x27;, sans-serif;font-size:14px;fill:#202020">Categories</text><g transform="translate(0, 15)"><g transform="translate(10, 25)"><g transform="translate(0, 0)"><clipPath id="clip_b51b0a8c-dcb2-4814-a792-c4d3a824d9d5"><rect x="21" y="0" width="191" height="17"></rect></clipPath><text x="21" y="14" style="fill:#202020;font-family:Arial;font-size:14px" clip-path="url(#clip_b51b0a8c-dcb2-4814-a792-c4d3a824d9d5)">_id</text></g><text x="233" y="14" style="fill:#202020;font-family:Arial;font-size:14px" width="80">objectId</text><text x="334" y="14" width="22" height="14" style="fill:#202020;font-family:Arial;font-size:14px">NN</text></g><g transform="translate(10, 49)"><g transform="translate(0, 0)"><clipPath id="clip_94c3c9d6-0c10-4a2b-836e-02c76a19d0fe"><rect x="21" y="0" width="191" height="17"></rect></clipPath><text x="21" y="14" style="fill:#202020;font-family:Arial;font-size:14px" clip-path="url(#clip_94c3c9d6-0c10-4a2b-836e-02c76a19d0fe)">name</text></g><text x="233" y="14" style="fill:#202020;font-family:Arial;font-size:14px" width="80">string</text><text x="334" y="14" width="22" height="14" style="fill:#202020;font-family:Arial;font-size:14px"></text></g><g transform="translate(10, 73)"><g transform="translate(0, 0)"><text x="0" y="14" style="fill:#202020;font-family:&#x27;Arial&#x27;, sans-serif;font-size:14px">▼</text><clipPath id="clip_ea9b9303-93b9-4786-bf14-61e9ed368d3b"><rect x="21" y="0" width="191" height="17"></rect></clipPath><text x="21" y="14" style="fill:#202020;font-family:Arial;font-size:14px" clip-path="url(#clip_ea9b9303-93b9-4786-bf14-61e9ed368d3b)">last_publish</text></g><text x="233" y="14" style="fill:#202020;font-family:Arial;font-size:14px" width="80">object[]</text><text x="334" y="14" width="22" height="14" style="fill:#202020;font-family:Arial;font-size:14px"></text></g><g transform="translate(10, 97)"><g transform="translate(20, 0)"><clipPath id="clip_a4ef97dc-9f5c-4e6f-9824-81949d7404ac"><rect x="21" y="0" width="171" height="17"></rect></clipPath><text x="21" y="14" style="fill:#202020;font-family:Arial;font-size:14px" clip-path="url(#clip_a4ef97dc-9f5c-4e6f-9824-81949d7404ac)">title</text></g><text x="233" y="14" style="fill:#202020;font-family:Arial;font-size:14px" width="80">string</text><text x="334" y="14" width="22" height="14" style="fill:#202020;font-family:Arial;font-size:14px"></text></g><g transform="translate(10, 121)"><g transform="translate(20, 0)"><clipPath id="clip_b804c844-5a42-44f3-ac25-0e3b809cd4c5"><rect x="21" y="0" width="171" height="17"></rect></clipPath><text x="21" y="14" style="fill:#202020;font-family:Arial;font-size:14px" clip-path="url(#clip_b804c844-5a42-44f3-ac25-0e3b809cd4c5)">description</text></g><text x="233" y="14" style="fill:#202020;font-family:Arial;font-size:14px" width="80">string</text><text x="334" y="14" width="22" height="14" style="fill:#202020;font-family:Arial;font-size:14px"></text></g><g transform="translate(10, 145)"><g transform="translate(20, 0)"><clipPath id="clip_3087bd83-44fc-4a2d-a9db-4f832c2e29ad"><rect x="21" y="0" width="171" height="17"></rect></clipPath><text x="21" y="14" style="fill:#202020;font-family:Arial;font-size:14px" clip-path="url(#clip_3087bd83-44fc-4a2d-a9db-4f832c2e29ad)">courseId</text></g><text x="233" y="14" style="fill:#202020;font-family:Arial;font-size:14px" width="80">objectId</text><text x="334" y="14" width="22" height="14" style="fill:#202020;font-family:Arial;font-size:14px"></text></g><g transform="translate(10, 169)"><g transform="translate(20, 0)"><clipPath id="clip_2f6064bb-a2ba-42b6-b9ad-42a313db08ba"><rect x="21" y="0" width="171" height="17"></rect></clipPath><text x="21" y="14" style="fill:#202020;font-family:Arial;font-size:14px" clip-path="url(#clip_2f6064bb-a2ba-42b6-b9ad-42a313db08ba)">imgUrl</text></g><text x="233" y="14" style="fill:#202020;font-family:Arial;font-size:14px" width="80">string</text><text x="334" y="14" width="22" height="14" style="fill:#202020;font-family:Arial;font-size:14px"></text></g><g transform="translate(10, 193)"><g transform="translate(0, 0)"><text x="0" y="14" style="fill:#202020;font-family:&#x27;Arial&#x27;, sans-serif;font-size:14px">▼</text><clipPath id="clip_77d3e873-d769-4598-ad67-c6084c6c5f04"><rect x="21" y="0" width="191" height="17"></rect></clipPath><text x="21" y="14" style="fill:#202020;font-family:Arial;font-size:14px" clip-path="url(#clip_77d3e873-d769-4598-ad67-c6084c6c5f04)">ancestors</text></g><text x="233" y="14" style="fill:#202020;font-family:Arial;font-size:14px" width="80">object[]</text><text x="334" y="14" width="22" height="14" style="fill:#202020;font-family:Arial;font-size:14px"></text></g><g transform="translate(10, 217)"><g transform="translate(20, 0)"><clipPath id="clip_1fd9b585-ffc7-43fa-9d0b-f790fa6d566e"><rect x="21" y="0" width="171" height="17"></rect></clipPath><text x="21" y="14" style="fill:#202020;font-family:Arial;font-size:14px" clip-path="url(#clip_1fd9b585-ffc7-43fa-9d0b-f790fa6d566e)">name</text></g><text x="233" y="14" style="fill:#202020;font-family:Arial;font-size:14px" width="80">string</text><text x="334" y="14" width="22" height="14" style="fill:#202020;font-family:Arial;font-size:14px"></text></g><g transform="translate(10, 241)"><g transform="translate(20, 0)"><clipPath id="clip_83bc8ce7-99fc-4cc8-ab6b-2eae9fce4446"><rect x="21" y="0" width="171" height="17"></rect></clipPath><text x="21" y="14" style="fill:#202020;font-family:Arial;font-size:14px" clip-path="url(#clip_83bc8ce7-99fc-4cc8-ab6b-2eae9fce4446)">ancestorId</text></g><text x="233" y="14" style="fill:#202020;font-family:Arial;font-size:14px" width="80">objectId</text><text x="334" y="14" width="22" height="14" style="fill:#202020;font-family:Arial;font-size:14px"></text></g><g transform="translate(10, 265)"><g transform="translate(0, 0)"><clipPath id="clip_31ee21ef-1372-4b04-9216-2dc92b6c8b34"><rect x="21" y="0" width="191" height="17"></rect></clipPath><text x="21" y="14" style="fill:#202020;font-family:Arial;font-size:14px" clip-path="url(#clip_31ee21ef-1372-4b04-9216-2dc92b6c8b34)">parentId</text></g><text x="233" y="14" style="fill:#202020;font-family:Arial;font-size:14px" width="80">objectId</text><text x="334" y="14" width="22" height="14" style="fill:#202020;font-family:Arial;font-size:14px"></text></g></g><rect x="0" y="0" width="380" height="314" style="fill:none;stroke:#e6eaf2"></rect></g><g transform="translate(596.7500000000002, 1606.0749999999998)"><rect x="0" y="0" width="380" height="506" style="fill:#fefdfe"></rect><rect x="0" y="0" width="380" height="25" style="fill:#e6eaf2"></rect><text x="10" y="14" style="font-family:&#x27;Arial&#x27;, sans-serif;font-size:14px;fill:#202020">Courses</text><g transform="translate(0, 15)"><g transform="translate(10, 25)"><g transform="translate(0, 0)"><clipPath id="clip_8e79359c-6bc2-4d9d-ad9f-02181a8b947f"><rect x="21" y="0" width="191" height="17"></rect></clipPath><text x="21" y="14" style="fill:#202020;font-family:Arial;font-size:14px" clip-path="url(#clip_8e79359c-6bc2-4d9d-ad9f-02181a8b947f)">_id</text></g><text x="233" y="14" style="fill:#202020;font-family:Arial;font-size:14px" width="80">objectId</text><text x="334" y="14" width="22" height="14" style="fill:#202020;font-family:Arial;font-size:14px">NN</text></g><g transform="translate(10, 49)"><g transform="translate(0, 0)"><clipPath id="clip_a9c5f25c-4c9d-4574-804d-252cae3c3a99"><rect x="21" y="0" width="191" height="17"></rect></clipPath><text x="21" y="14" style="fill:#202020;font-family:Arial;font-size:14px" clip-path="url(#clip_a9c5f25c-4c9d-4574-804d-252cae3c3a99)">title</text></g><text x="233" y="14" style="fill:#202020;font-family:Arial;font-size:14px" width="80">string</text><text x="334" y="14" width="22" height="14" style="fill:#202020;font-family:Arial;font-size:14px"></text></g><g transform="translate(10, 73)"><g transform="translate(0, 0)"><text x="0" y="14" style="fill:#202020;font-family:&#x27;Arial&#x27;, sans-serif;font-size:14px">▼</text><clipPath id="clip_a8968939-7b8e-4b26-9231-10383659167d"><rect x="21" y="0" width="191" height="17"></rect></clipPath><text x="21" y="14" style="fill:#202020;font-family:Arial;font-size:14px" clip-path="url(#clip_a8968939-7b8e-4b26-9231-10383659167d)">author</text></g><text x="233" y="14" style="fill:#202020;font-family:Arial;font-size:14px" width="80">object[]</text><text x="334" y="14" width="22" height="14" style="fill:#202020;font-family:Arial;font-size:14px"></text></g><g transform="translate(10, 97)"><g transform="translate(20, 0)"><clipPath id="clip_e4944e34-d3eb-4cbd-9dcc-c4737cc6958c"><rect x="21" y="0" width="171" height="17"></rect></clipPath><text x="21" y="14" style="fill:#202020;font-family:Arial;font-size:14px" clip-path="url(#clip_e4944e34-d3eb-4cbd-9dcc-c4737cc6958c)">authorId</text></g><text x="233" y="14" style="fill:#202020;font-family:Arial;font-size:14px" width="80">objectId</text><text x="334" y="14" width="22" height="14" style="fill:#202020;font-family:Arial;font-size:14px"></text></g><g transform="translate(10, 121)"><g transform="translate(20, 0)"><clipPath id="clip_db3c2241-441d-48bc-8b4f-447936dc7bd0"><rect x="21" y="0" width="171" height="17"></rect></clipPath><text x="21" y="14" style="fill:#202020;font-family:Arial;font-size:14px" clip-path="url(#clip_db3c2241-441d-48bc-8b4f-447936dc7bd0)">name</text></g><text x="233" y="14" style="fill:#202020;font-family:Arial;font-size:14px" width="80">string</text><text x="334" y="14" width="22" height="14" style="fill:#202020;font-family:Arial;font-size:14px"></text></g><g transform="translate(10, 145)"><g transform="translate(0, 0)"><clipPath id="clip_0adb8614-7539-4514-86f6-d86b57a0d47e"><rect x="21" y="0" width="191" height="17"></rect></clipPath><text x="21" y="14" style="fill:#202020;font-family:Arial;font-size:14px" clip-path="url(#clip_0adb8614-7539-4514-86f6-d86b57a0d47e)">createdAt</text></g><text x="233" y="14" style="fill:#202020;font-family:Arial;font-size:14px" width="80">date</text><text x="334" y="14" width="22" height="14" style="fill:#202020;font-family:Arial;font-size:14px"></text></g><g transform="translate(10, 169)"><g transform="translate(0, 0)"><clipPath id="clip_2dc873d3-d98a-4fd9-b15f-4255c67346a1"><rect x="21" y="0" width="191" height="17"></rect></clipPath><text x="21" y="14" style="fill:#202020;font-family:Arial;font-size:14px" clip-path="url(#clip_2dc873d3-d98a-4fd9-b15f-4255c67346a1)">totalViews</text></g><text x="233" y="14" style="fill:#202020;font-family:Arial;font-size:14px" width="80">int</text><text x="334" y="14" width="22" height="14" style="fill:#202020;font-family:Arial;font-size:14px"></text></g><g transform="translate(10, 193)"><g transform="translate(0, 0)"><text x="0" y="14" style="fill:#202020;font-family:&#x27;Arial&#x27;, sans-serif;font-size:14px">▼</text><clipPath id="clip_9f1f9d3a-b388-4dce-b833-45f45cd81c2c"><rect x="21" y="0" width="191" height="17"></rect></clipPath><text x="21" y="14" style="fill:#202020;font-family:Arial;font-size:14px" clip-path="url(#clip_9f1f9d3a-b388-4dce-b833-45f45cd81c2c)">lessons</text></g><text x="233" y="14" style="fill:#202020;font-family:Arial;font-size:14px" width="80">object[]</text><text x="334" y="14" width="22" height="14" style="fill:#202020;font-family:Arial;font-size:14px"></text></g><g transform="translate(10, 217)"><g transform="translate(20, 0)"><clipPath id="clip_ed66924a-c06d-41ad-845a-f2aff89b1ab6"><rect x="21" y="0" width="171" height="17"></rect></clipPath><text x="21" y="14" style="fill:#202020;font-family:Arial;font-size:14px" clip-path="url(#clip_ed66924a-c06d-41ad-845a-f2aff89b1ab6)">url</text></g><text x="233" y="14" style="fill:#202020;font-family:Arial;font-size:14px" width="80">string</text><text x="334" y="14" width="22" height="14" style="fill:#202020;font-family:Arial;font-size:14px"></text></g><g transform="translate(10, 241)"><g transform="translate(20, 0)"><clipPath id="clip_489f396f-adc7-41eb-86e3-1a88a2d93426"><rect x="21" y="0" width="171" height="17"></rect></clipPath><text x="21" y="14" style="fill:#202020;font-family:Arial;font-size:14px" clip-path="url(#clip_489f396f-adc7-41eb-86e3-1a88a2d93426)">title</text></g><text x="233" y="14" style="fill:#202020;font-family:Arial;font-size:14px" width="80">string</text><text x="334" y="14" width="22" height="14" style="fill:#202020;font-family:Arial;font-size:14px"></text></g><g transform="translate(10, 265)"><g transform="translate(20, 0)"><clipPath id="clip_7114a045-0ebb-4c28-ad13-a0ee4a958d61"><rect x="21" y="0" width="171" height="17"></rect></clipPath><text x="21" y="14" style="fill:#202020;font-family:Arial;font-size:14px" clip-path="url(#clip_7114a045-0ebb-4c28-ad13-a0ee4a958d61)">videoUrl</text></g><text x="233" y="14" style="fill:#202020;font-family:Arial;font-size:14px" width="80">string</text><text x="334" y="14" width="22" height="14" style="fill:#202020;font-family:Arial;font-size:14px"></text></g><g transform="translate(10, 289)"><g transform="translate(20, 0)"><clipPath id="clip_778d5a03-4aa7-4b9f-9155-21e2577ee60d"><rect x="21" y="0" width="171" height="17"></rect></clipPath><text x="21" y="14" style="fill:#202020;font-family:Arial;font-size:14px" clip-path="url(#clip_778d5a03-4aa7-4b9f-9155-21e2577ee60d)">contentGuid</text></g><text x="233" y="14" style="fill:#202020;font-family:Arial;font-size:14px" width="80">string</text><text x="334" y="14" width="22" height="14" style="fill:#202020;font-family:Arial;font-size:14px"></text></g><g transform="translate(10, 313)"><g transform="translate(20, 0)"><clipPath id="clip_3e5b6f87-66d8-4925-b64d-58087004b340"><rect x="21" y="0" width="171" height="17"></rect></clipPath><text x="21" y="14" style="fill:#202020;font-family:Arial;font-size:14px" clip-path="url(#clip_3e5b6f87-66d8-4925-b64d-58087004b340)">views</text></g><text x="233" y="14" style="fill:#202020;font-family:Arial;font-size:14px" width="80">int</text><text x="334" y="14" width="22" height="14" style="fill:#202020;font-family:Arial;font-size:14px"></text></g><g transform="translate(10, 337)"><g transform="translate(20, 0)"><clipPath id="clip_1193a223-bfaa-4e40-914e-bce6bb63395d"><rect x="21" y="0" width="171" height="17"></rect></clipPath><text x="21" y="14" style="fill:#202020;font-family:Arial;font-size:14px" clip-path="url(#clip_1193a223-bfaa-4e40-914e-bce6bb63395d)">isPublic</text></g><text x="233" y="14" style="fill:#202020;font-family:Arial;font-size:14px" width="80">bool</text><text x="334" y="14" width="22" height="14" style="fill:#202020;font-family:Arial;font-size:14px"></text></g><g transform="translate(10, 361)"><g transform="translate(20, 0)"><clipPath id="clip_9132684e-3ef2-451e-a198-ee91e90a912e"><rect x="21" y="0" width="171" height="17"></rect></clipPath><text x="21" y="14" style="fill:#202020;font-family:Arial;font-size:14px" clip-path="url(#clip_9132684e-3ef2-451e-a198-ee91e90a912e)">authorId</text></g><text x="233" y="14" style="fill:#202020;font-family:Arial;font-size:14px" width="80">objectId</text><text x="334" y="14" width="22" height="14" style="fill:#202020;font-family:Arial;font-size:14px"></text></g><g transform="translate(10, 385)"><g transform="translate(0, 0)"><text x="0" y="14" style="fill:#202020;font-family:&#x27;Arial&#x27;, sans-serif;font-size:14px">▼</text><clipPath id="clip_a3f25c29-65e8-4245-bc51-fa487ef3b6ab"><rect x="21" y="0" width="191" height="17"></rect></clipPath><text x="21" y="14" style="fill:#202020;font-family:Arial;font-size:14px" clip-path="url(#clip_a3f25c29-65e8-4245-bc51-fa487ef3b6ab)">category</text></g><text x="233" y="14" style="fill:#202020;font-family:Arial;font-size:14px" width="80">object</text><text x="334" y="14" width="22" height="14" style="fill:#202020;font-family:Arial;font-size:14px"></text></g><g transform="translate(10, 409)"><g transform="translate(20, 0)"><clipPath id="clip_23a53b05-60cb-4e50-b7b7-f7dbc1883de8"><rect x="21" y="0" width="171" height="17"></rect></clipPath><text x="21" y="14" style="fill:#202020;font-family:Arial;font-size:14px" clip-path="url(#clip_23a53b05-60cb-4e50-b7b7-f7dbc1883de8)">categoryId</text></g><text x="233" y="14" style="fill:#202020;font-family:Arial;font-size:14px" width="80">objectId</text><text x="334" y="14" width="22" height="14" style="fill:#202020;font-family:Arial;font-size:14px"></text></g><g transform="translate(10, 433)"><g transform="translate(20, 0)"><clipPath id="clip_4e93cd9c-7283-40fa-8a19-b8042aef98a6"><rect x="21" y="0" width="171" height="17"></rect></clipPath><text x="21" y="14" style="fill:#202020;font-family:Arial;font-size:14px" clip-path="url(#clip_4e93cd9c-7283-40fa-8a19-b8042aef98a6)">name</text></g><text x="233" y="14" style="fill:#202020;font-family:Arial;font-size:14px" width="80">string</text><text x="334" y="14" width="22" height="14" style="fill:#202020;font-family:Arial;font-size:14px"></text></g><g transform="translate(10, 457)"><g transform="translate(0, 0)"><clipPath id="clip_0af190d9-4da8-4a4a-9144-ebce119204a4"><rect x="21" y="0" width="191" height="17"></rect></clipPath><text x="21" y="14" style="fill:#202020;font-family:Arial;font-size:14px" clip-path="url(#clip_0af190d9-4da8-4a4a-9144-ebce119204a4)">tags</text></g><text x="233" y="14" style="fill:#202020;font-family:Arial;font-size:14px" width="80">string[]</text><text x="334" y="14" width="22" height="14" style="fill:#202020;font-family:Arial;font-size:14px"></text></g></g><rect x="0" y="0" width="380" height="506" style="fill:none;stroke:#e6eaf2"></rect></g></svg>